<?xml version="1.0" encoding="UTF-8" standalone="no"?>
<!-- Created with Inkscape (http://www.inkscape.org/) -->

<svg
   xmlns:dc="http://purl.org/dc/elements/1.1/"
   xmlns:cc="http://creativecommons.org/ns#"
   xmlns:rdf="http://www.w3.org/1999/02/22-rdf-syntax-ns#"
   xmlns:svg="http://www.w3.org/2000/svg"
   xmlns="http://www.w3.org/2000/svg"
   xmlns:sodipodi="http://sodipodi.sourceforge.net/DTD/sodipodi-0.dtd"
   xmlns:inkscape="http://www.inkscape.org/namespaces/inkscape"
   width="207.50417mm"
   height="36.103844mm"
   viewBox="0 0 207.50417 36.103844"
   version="1.1"
   id="svg4028"
   inkscape:version="0.92.4 (5da689c313, 2019-01-14)"
   sodipodi:docname="monogram1light.svg">
  <defs
     id="defs4022" />
  <sodipodi:namedview
     id="base"
     pagecolor="#ffffff"
     bordercolor="#666666"
     borderopacity="1.0"
     inkscape:pageopacity="0.0"
     inkscape:pageshadow="2"
     inkscape:zoom="1.9216036"
     inkscape:cx="270.7511"
     inkscape:cy="82.484047"
     inkscape:document-units="mm"
     inkscape:current-layer="layer1"
     showgrid="false"
     inkscape:window-width="1920"
     inkscape:window-height="1017"
     inkscape:window-x="-8"
     inkscape:window-y="-8"
     inkscape:window-maximized="1"
     fit-margin-top="0"
     fit-margin-left="0"
     fit-margin-right="0"
     fit-margin-bottom="0" />
  <metadata
     id="metadata4025">
    <rdf:RDF>
      <cc:Work
         rdf:about="">
        <dc:format>image/svg+xml</dc:format>
        <dc:type
           rdf:resource="http://purl.org/dc/dcmitype/StillImage" />
        <dc:title></dc:title>
      </cc:Work>
    </rdf:RDF>
  </metadata>
  <g
     inkscape:label="Layer 1"
     inkscape:groupmode="layer"
     id="layer1"
     transform="translate(-1.1028394,-1.3433173)">
    <path
       inkscape:connector-curvature="0"
       id="path3881"
       style="fill:#f2f1f1;fill-opacity:1;fill-rule:nonzero;stroke:none;stroke-width:1.11671638"
       d="m 99.837733,4.6472153 c 0,0 -0.12444,0.1204495 -0.367157,0.354266 -0.25008,0.2297661 -0.580287,0.5921319 -0.974537,1.0850691 -0.388088,0.4979959 -0.808218,1.1437755 -1.185217,1.9423914 -0.358522,0.8046934 -0.660376,1.7652624 -0.790964,2.8634892 -0.27597,2.187341 0.181111,4.938475 1.776597,7.720987 0.788501,1.39075 1.867755,2.783523 3.251335,4.074067 0.68624,0.649825 1.46612,1.260176 2.31499,1.830041 0.85134,0.56885 1.77661,1.098226 2.78933,1.537518 0.24516,0.121453 0.51253,0.210542 0.77003,0.317827 0.12814,0.04857 0.26611,0.110321 0.38685,0.149801 l 0.41151,0.132585 c 0.27352,0.08906 0.54948,0.17815 0.82792,0.268242 0.2772,0.08604 0.55319,0.19129 0.84026,0.252031 0.57042,0.13666 1.1421,0.286462 1.72607,0.417021 0.59509,0.103235 1.19508,0.207502 1.80002,0.312769 2.44065,0.342118 5.01931,0.399815 7.63862,0.191319 5.24724,-0.419048 10.62262,-1.860408 15.74913,-3.998156 5.13759,-2.159002 10.01522,-4.989084 14.99265,-7.85156 4.97003,-2.860451 10.08299,-5.777582 15.69738,-7.9821326 2.81397,-1.0982265 5.7499,-1.9919913 8.76963,-2.5962681 3.01726,-0.6073152 6.11707,-0.944375 9.20578,-0.9049003 3.08132,0.040487 6.16758,0.4484012 9.00496,1.371518 1.41561,0.4605476 2.78193,1.0132042 4.04971,1.6782134 1.27883,0.6882894 2.41973,1.5111997 3.41275,2.4241966 1.97494,1.838137 3.37699,4.001187 4.21108,6.244203 0.83287,2.244025 1.0965,4.591296 0.67514,6.816089 -0.4078,2.220748 -1.54742,4.314969 -3.3006,5.888924 l -0.32654,0.294548 c -0.1135,0.09414 -0.234,0.182195 -0.34991,0.273292 -0.23294,0.18119 -0.46445,0.362364 -0.72072,0.518241 l -0.37208,0.241903 -0.0936,0.06074 -0.0454,0.03035 -0.0667,0.03643 -0.18964,0.102229 c -0.25739,0.135628 -0.50144,0.276333 -0.76511,0.40589 -1.11252,0.529376 -2.25091,0.875545 -3.41027,1.120495 -4.65463,0.934252 -9.3721,-0.24394 -12.04932,-2.55477 l -0.25501,-0.210541 -0.0628,-0.05263 c -0.0147,-0.0132 -0.01,-0.0061 -0.0419,-0.03745 l -0.0272,-0.02726 -0.1084,-0.112358 c -0.14291,-0.148798 -0.28582,-0.296573 -0.42752,-0.443341 -0.14783,-0.136659 -0.26119,-0.315801 -0.38809,-0.474718 -0.12198,-0.16297 -0.24765,-0.322888 -0.36221,-0.484838 -0.0974,-0.167015 -0.19346,-0.33301 -0.28952,-0.496985 -0.0924,-0.164979 -0.19836,-0.322889 -0.2612,-0.493951 -0.0727,-0.16802 -0.14417,-0.33402 -0.21562,-0.499008 -0.0331,-0.08198 -0.0739,-0.162971 -0.10225,-0.245948 l -0.0739,-0.250022 c -0.42013,-1.323945 -0.45709,-2.595255 -0.2883,-3.71069 0.0248,-0.139673 0.0493,-0.277337 0.0726,-0.412976 0.0221,-0.135627 0.048,-0.269245 0.0924,-0.397789 0.0777,-0.258113 0.14783,-0.510144 0.22791,-0.752056 0.10103,-0.23585 0.19958,-0.464597 0.29445,-0.686268 0.0432,-0.111354 0.0985,-0.217629 0.16138,-0.318841 0.0579,-0.102228 0.1158,-0.202421 0.17371,-0.30062 0.20574,-0.403863 0.49651,-0.733835 0.7232,-1.051666 0.25505,-0.303656 0.52609,-0.557715 0.74662,-0.795581 0.25871,-0.211545 0.48665,-0.398801 0.68378,-0.559741 0.19589,-0.162971 0.39918,-0.264167 0.5421,-0.363375 0.29828,-0.189281 0.45227,-0.286432 0.45227,-0.286432 l 0.0604,0.07188 c 0,0 -0.1466,0.100221 -0.43244,0.29556 -0.13799,0.102229 -0.33264,0.206496 -0.51745,0.372484 -0.18727,0.163976 -0.40289,0.35427 -0.64805,0.568855 -0.207,0.239893 -0.45832,0.495973 -0.6961,0.798617 -0.2107,0.316815 -0.4842,0.643753 -0.67023,1.042555 -0.053,0.09718 -0.10596,0.196368 -0.15894,0.296571 -0.0579,0.100222 -0.10841,0.20446 -0.14662,0.314793 -0.085,0.216595 -0.17248,0.441315 -0.26367,0.673105 -0.0678,0.236853 -0.12692,0.483828 -0.19467,0.735865 -0.0394,0.125499 -0.0604,0.255071 -0.0752,0.38767 -0.0185,0.131581 -0.0381,0.265199 -0.0567,0.400825 -0.12813,1.085067 -0.0444,2.31083 0.39671,3.567971 l 0.0776,0.237855 c 0.0283,0.07897 0.0691,0.155885 0.10348,0.233813 0.0714,0.155883 0.14412,0.312769 0.21685,0.471682 0.0628,0.161939 0.16877,0.310744 0.26119,0.465609 0.0936,0.153846 0.18851,0.309731 0.28459,0.466618 0.11459,0.145755 0.22917,0.292523 0.34498,0.440302 0.12199,0.145755 0.21684,0.29961 0.37331,0.441317 0.14538,0.143718 0.29199,0.288472 0.4386,0.435241 l 0.11089,0.110321 0.0283,0.02727 c -0.0147,-0.01206 0.0136,0.01004 0.0185,0.01406 l 0.0604,0.04758 0.24639,0.194331 c 0.16635,0.128541 0.32525,0.266205 0.50144,0.388682 0.18356,0.116404 0.36715,0.234816 0.55318,0.353254 0.0949,0.0577 0.18356,0.121454 0.28338,0.175107 l 0.30306,0.15488 c 0.20452,0.10223 0.40411,0.212551 0.61479,0.30973 0.4386,0.170057 0.86489,0.374512 1.34045,0.505082 0.2341,0.06781 0.46202,0.156889 0.7072,0.210543 0.24272,0.0567 0.48788,0.113362 0.73429,0.170058 1.98727,0.40184 4.20494,0.427146 6.37702,-0.02935 1.0768,-0.235848 2.16469,-0.587069 3.13306,-1.057736 0.25006,-0.1255 0.50144,-0.273292 0.75401,-0.409938 l 0.18859,-0.104266 c 0.007,-0.0052 0.0507,-0.02841 0.028,-0.01606 l 0.0419,-0.02935 0.0862,-0.0567 0.34259,-0.228763 c 0.23644,-0.146759 0.44847,-0.317828 0.66161,-0.487875 0.1072,-0.08501 0.21687,-0.168021 0.32165,-0.255072 l 0.29825,-0.276333 c 1.59912,-1.471755 2.63035,-3.418196 2.98395,-5.505335 0.69611,-4.174271 -0.98195,-8.872861 -4.70514,-12.334552 -0.93143,-0.8623869 -1.99591,-1.6377228 -3.17126,-2.2774291 -1.20619,-0.63768 -2.50228,-1.1690787 -3.85136,-1.6144417 -2.70179,-0.8887066 -5.65868,-1.3077533 -8.64143,-1.3654504 -5.98524,-0.1052706 -12.06165,1.19135 -17.58733,3.308852 -5.55648,2.1448302 -10.65589,5.0123652 -15.6481,7.8464992 -2.49857,1.41808 -4.97866,2.831098 -7.48832,4.160104 -1.25298,0.666023 -2.51828,1.304712 -3.79098,1.923163 -0.63942,0.298594 -1.27761,0.596179 -1.91334,0.892752 -0.64928,0.279374 -1.29119,0.564802 -1.94046,0.835055 -5.19796,2.129651 -10.64726,3.571008 -15.97952,3.955641 -2.65997,0.193327 -5.28174,0.116403 -7.75936,-0.248989 -0.61479,-0.111354 -1.22342,-0.221674 -1.82711,-0.332001 -0.59754,-0.137665 -1.18276,-0.29556 -1.76675,-0.440302 -0.29569,-0.06579 -0.5655,-0.171061 -0.84394,-0.260121 -0.27597,-0.09109 -0.55072,-0.183198 -0.82546,-0.273291 l -0.40904,-0.136661 c -0.15154,-0.05061 -0.27105,-0.107279 -0.4078,-0.15993 -0.26242,-0.111354 -0.53471,-0.205462 -0.78482,-0.330984 -1.02997,-0.456498 -1.96879,-1.003082 -2.82875,-1.588126 -0.85749,-0.586061 -1.64477,-1.212605 -2.33348,-1.877614 -1.390967,-1.319896 -2.468991,-2.737976 -3.253801,-4.152007 -1.58563,-2.82907 -2.0193,-5.61462 -1.716219,-7.827268 0.144129,-1.1103726 0.458317,-2.0800501 0.830388,-2.8908146 0.389327,-0.8057033 0.82054,-1.4555315 1.218487,-1.9555531 0.402874,-0.4959729 0.745371,-0.8623871 0.995481,-1.0881041 0.243937,-0.2318027 0.370847,-0.3522433 0.370847,-0.3522433 z" />
    <path
       inkscape:connector-curvature="0"
       id="path3877"
       style="fill:#f2f1f1;fill-opacity:1;fill-rule:nonzero;stroke:none;stroke-width:1.11671638"
       d="m 7.0254251,1.9865275 c 0,0 -0.1564643,0.1508053 -0.4583248,0.4433405 C 6.2541481,2.7173275 5.8401977,3.1697777 5.3486215,3.7862025 5.117003,4.1030169 4.8385538,4.4481732 4.6032355,4.860136 4.3371218,5.2579278 4.1165791,5.7204975 3.8664771,6.2144475 3.418016,7.219552 3.0422449,8.4200083 2.8783888,9.7925393 2.7133047,11.163046 2.7527277,12.7036 3.1124792,14.3393 c 0.3536033,1.634687 0.9831682,3.372616 1.9872762,5.106502 0.4878921,0.871493 1.080498,1.736917 1.7544217,2.592217 0.665304,0.860364 1.4513411,1.690358 2.3100685,2.499099 0.8574984,0.812789 1.8320394,1.575982 2.8940534,2.288561 1.06325,0.710558 2.220131,1.372531 3.486668,1.922151 0.306766,0.150805 0.641885,0.26216 0.963449,0.396778 0.160157,0.06074 0.331428,0.137664 0.482957,0.18624 l 0.51376,0.166012 c 0.343724,0.111354 0.688707,0.223683 1.03491,0.336047 0.347424,0.107279 0.692408,0.238861 1.050931,0.313779 0.713347,0.171062 1.427922,0.35933 2.158524,0.521277 0.742922,0.129572 1.493228,0.260121 2.249699,0.391717 3.050526,0.427143 6.274764,0.499011 9.549517,0.23889 6.558127,-0.524316 13.27889,-2.327026 19.68671,-4.999208 6.422609,-2.699511 12.519957,-6.238129 18.741743,-9.815211 6.211926,-3.579104 12.606194,-7.216916 19.621417,-9.9842465 3.521156,-1.3705052 7.187695,-2.4798649 10.962656,-3.2420453 3.77126,-0.7611676 7.64478,-1.196408 11.50721,-1.1387142 3.85504,0.054659 7.7064,0.5809989 11.25958,1.721736 1.77291,0.566828 3.48051,1.262202 5.05628,2.104344 1.5992,0.8613744 3.02589,1.8907718 4.26532,3.0315087 2.46778,2.2976753 4.22095,5.0032593 5.26325,7.8070253 1.03981,2.80478 1.3688,5.738107 0.84148,8.519608 -0.26123,1.388725 -0.73674,2.735951 -1.43162,3.983981 -0.69361,1.248031 -1.60781,2.392816 -2.69693,3.377679 l -0.40781,0.368437 c -0.14284,0.116403 -0.29196,0.226724 -0.43861,0.340096 l -0.4386,0.337058 c -0.14424,0.112357 -0.308,0.206496 -0.46201,0.310743 l -0.46571,0.302647 -0.1158,0.07592 -0.0579,0.03744 -0.0826,0.04554 -0.2378,0.128541 c -0.32157,0.16902 -0.62587,0.345151 -0.95729,0.5071 -1.39098,0.661974 -2.81398,1.093167 -4.26409,1.398848 -5.81889,1.166044 -11.71543,-0.307704 -15.05916,-3.198519 l -0.31911,-0.263164 -0.0788,-0.06579 c -0.006,-0.0041 -0.0358,-0.02936 -0.0456,-0.03949 l -0.0346,-0.0344 -0.14046,-0.136659 -0.27722,-0.272289 -0.26856,-0.295558 c -0.35593,-0.390691 -0.65039,-0.791518 -0.92636,-1.197404 -0.53348,-0.816838 -0.92034,-1.654933 -1.18646,-2.479868 -0.52731,-1.65493 -0.5729,-3.246094 -0.35729,-4.640893 0.10844,-0.69841 0.28337,-1.350261 0.50022,-1.951502 0.21928,-0.599218 0.49033,-1.143775 0.77247,-1.636713 0.58399,-0.981824 1.24313,-1.744004 1.85176,-2.302731 0.60862,-0.561767 1.15687,-0.923121 1.5191,-1.16807 0.38193,-0.22572 0.57783,-0.34313 0.57783,-0.34313 l 0.0765,0.08906 c 0,0 -0.18848,0.121454 -0.55565,0.355279 -0.34743,0.25203 -0.86982,0.622498 -1.44149,1.190334 -0.5692,0.566829 -1.18768,1.326983 -1.72238,2.295648 -0.25872,0.486863 -0.50391,1.022314 -0.69733,1.610397 -0.18975,0.588083 -0.33757,1.225762 -0.4189,1.90393 -0.16387,1.356336 -0.0591,2.890814 0.49529,4.462747 0.54948,1.566871 1.54743,3.183339 3.21314,4.479954 0.20822,0.160934 0.40658,0.331999 0.62588,0.486863 0.22917,0.145756 0.45954,0.292524 0.6924,0.440305 0.11706,0.07288 0.22917,0.152843 0.35237,0.219637 l 0.37946,0.194332 c 0.25505,0.127536 0.50514,0.2652 0.76878,0.387669 0.54827,0.211546 1.08052,0.468644 1.67435,0.630592 0.29322,0.08605 0.57905,0.19637 0.88461,0.265201 0.30307,0.06983 0.60985,0.140706 0.91786,0.212551 2.48379,0.503059 5.2571,0.534437 7.97251,-0.03543 1.34415,-0.293533 2.70555,-0.731813 3.91665,-1.320909 0.31291,-0.155884 0.62586,-0.341108 0.94126,-0.512167 l 0.23654,-0.130578 c 0.01,-0.0052 0.0628,-0.0344 0.037,-0.02037 l 0.053,-0.03543 0.10717,-0.07084 0.42876,-0.286461 c 0.14046,-0.09819 0.29321,-0.186239 0.42504,-0.292522 l 0.40288,-0.316816 0.40163,-0.318839 0.37208,-0.345157 c 2.00087,-1.840002 3.29081,-4.272295 3.73312,-6.880709 0.44723,-2.61044 0.12433,-5.382828 -0.86858,-8.042864 -0.99795,-2.658014 -2.67721,-5.221892 -5.00947,-7.3768459 -1.16304,-1.078995 -2.49611,-2.0476599 -3.96347,-2.8483019 -1.49814,-0.8097516 -3.11827,-1.4767861 -4.80863,-2.0253948 -3.3844,-1.0972143 -7.07313,-1.6367103 -10.80374,-1.7126264 -3.73676,-0.082002 -7.51541,0.3147915 -11.2103,1.0344589 -3.696104,0.7196677 -7.317044,1.7875298 -10.780309,3.1064128 -6.93644,2.6914222 -13.318394,6.2674903 -19.556195,9.8131933 -3.123214,1.773358 -6.224247,3.53963 -9.361012,5.200634 -0.778649,0.421074 -1.575776,0.816838 -2.358119,1.22475 -0.787273,0.402853 -1.590559,0.786475 -2.380296,1.179204 -0.799593,0.373499 -1.596721,0.745983 -2.391381,1.116444 -0.811914,0.349209 -1.615201,0.705498 -2.425882,1.043569 -6.497762,2.663075 -13.30969,4.464773 -19.97501,4.945562 -3.325268,0.241902 -6.602486,0.145756 -9.701056,-0.310743 -0.767561,-0.138668 -1.528958,-0.277336 -2.284192,-0.413986 -0.745387,-0.172066 -1.478445,-0.36945 -2.206583,-0.550628 -0.370843,-0.082 -0.707183,-0.213583 -1.055851,-0.324914 -0.344976,-0.114366 -0.688707,-0.228762 -1.031212,-0.342121 L 16.813961,29.695229 C 16.625473,29.63147 16.475165,29.56161 16.305129,29.494814 15.976181,29.355142 15.636134,29.238739 15.323196,29.081842 14.03572,28.510966 12.86282,27.827736 11.78725,27.096937 10.714143,26.363099 9.7309833,25.580676 8.8697929,24.749666 8.0061295,23.921696 7.2176284,23.074492 6.5535604,22.196924 5.8784086,21.325425 5.2870307,20.445833 4.8028384,19.559154 3.8036584,17.795918 3.1851694,16.033695 2.8451295,14.376737 2.4989337,12.71877 2.4742865,11.159998 2.6566104,9.7743088 2.8364703,8.3865968 3.2295046,7.1739922 3.6939854,6.1607882 3.9514793,5.6617794 4.1794058,5.197184 4.4529192,4.7963563 4.6956451,4.3813582 4.9802344,4.0351891 5.2167808,3.7163491 5.7219206,3.0958755 6.1482063,2.6383671 6.4623709,2.3559659 6.7666954,2.0654679 6.9243877,1.9156611 6.9243877,1.9156611 Z" />
  </g>
</svg>
